<?xml version="1.0" encoding="UTF-8" standalone="no"?>
<!-- Created with Inkscape (http://www.inkscape.org/) -->

<svg
   width="100mm"
   height="100mm"
   viewBox="0 0 100 100"
   version="1.1"
   id="svg1"
   inkscape:version="1.4 (86a8ad7, 2024-10-11)"
   sodipodi:docname="IBH_logo_dark.svg"
   xml:space="preserve"
   inkscape:export-filename="IBH_logo_transparent_dark.png"
   inkscape:export-xdpi="96"
   inkscape:export-ydpi="96"
   xmlns:inkscape="http://www.inkscape.org/namespaces/inkscape"
   xmlns:sodipodi="http://sodipodi.sourceforge.net/DTD/sodipodi-0.dtd"
   xmlns="http://www.w3.org/2000/svg"
   xmlns:svg="http://www.w3.org/2000/svg"><sodipodi:namedview
     id="namedview1"
     pagecolor="#505050"
     bordercolor="#eeeeee"
     borderopacity="1"
     inkscape:showpageshadow="0"
     inkscape:pageopacity="0"
     inkscape:pagecheckerboard="0"
     inkscape:deskcolor="#505050"
     inkscape:document-units="mm"
     inkscape:zoom="1.3843855"
     inkscape:cx="177.335"
     inkscape:cy="154.94239"
     inkscape:window-width="1920"
     inkscape:window-height="991"
     inkscape:window-x="935"
     inkscape:window-y="2151"
     inkscape:window-maximized="1"
     inkscape:current-layer="layer1"
     showgrid="false" /><defs
     id="defs1"><inkscape:path-effect
       effect="bspline"
       id="path-effect55"
       is_visible="true"
       lpeversion="1.3"
       weight="33.333333"
       steps="2"
       helper_size="0"
       apply_no_weight="true"
       apply_with_weight="true"
       only_selected="false"
       uniform="false" /><inkscape:path-effect
       effect="bspline"
       id="path-effect54"
       is_visible="true"
       lpeversion="1.3"
       weight="33.333333"
       steps="2"
       helper_size="0"
       apply_no_weight="true"
       apply_with_weight="true"
       only_selected="false"
       uniform="false" /><inkscape:path-effect
       effect="bspline"
       id="path-effect53"
       is_visible="true"
       lpeversion="1.3"
       weight="33.333333"
       steps="2"
       helper_size="0"
       apply_no_weight="true"
       apply_with_weight="true"
       only_selected="false"
       uniform="false" /><inkscape:path-effect
       effect="bspline"
       id="path-effect52"
       is_visible="true"
       lpeversion="1.3"
       weight="33.333333"
       steps="2"
       helper_size="0"
       apply_no_weight="true"
       apply_with_weight="true"
       only_selected="false"
       uniform="false" /><inkscape:path-effect
       effect="bspline"
       id="path-effect51"
       is_visible="true"
       lpeversion="1.3"
       weight="33.333333"
       steps="2"
       helper_size="0"
       apply_no_weight="true"
       apply_with_weight="true"
       only_selected="false"
       uniform="false" /><inkscape:path-effect
       effect="bspline"
       id="path-effect50"
       is_visible="true"
       lpeversion="1.3"
       weight="33.333333"
       steps="2"
       helper_size="0"
       apply_no_weight="true"
       apply_with_weight="true"
       only_selected="false"
       uniform="false" /><inkscape:path-effect
       effect="bspline"
       id="path-effect49"
       is_visible="true"
       lpeversion="1.3"
       weight="33.333333"
       steps="2"
       helper_size="0"
       apply_no_weight="true"
       apply_with_weight="true"
       only_selected="false"
       uniform="false" /><inkscape:path-effect
       effect="bspline"
       id="path-effect48"
       is_visible="true"
       lpeversion="1.3"
       weight="33.333333"
       steps="2"
       helper_size="0"
       apply_no_weight="true"
       apply_with_weight="true"
       only_selected="false"
       uniform="false" /><inkscape:path-effect
       effect="bspline"
       id="path-effect47"
       is_visible="true"
       lpeversion="1.3"
       weight="33.333333"
       steps="2"
       helper_size="0"
       apply_no_weight="true"
       apply_with_weight="true"
       only_selected="false"
       uniform="false" /><inkscape:path-effect
       effect="bspline"
       id="path-effect15"
       is_visible="true"
       lpeversion="1.3"
       weight="33.333333"
       steps="2"
       helper_size="0"
       apply_no_weight="true"
       apply_with_weight="true"
       only_selected="false"
       uniform="false" /><inkscape:path-effect
       effect="bspline"
       id="path-effect14"
       is_visible="true"
       lpeversion="1.3"
       weight="33.333333"
       steps="2"
       helper_size="0"
       apply_no_weight="true"
       apply_with_weight="true"
       only_selected="false"
       uniform="false" /><inkscape:path-effect
       effect="bspline"
       id="path-effect13"
       is_visible="true"
       lpeversion="1.3"
       weight="33.333333"
       steps="2"
       helper_size="0"
       apply_no_weight="true"
       apply_with_weight="true"
       only_selected="false"
       uniform="false" /><inkscape:path-effect
       effect="bspline"
       id="path-effect12"
       is_visible="true"
       lpeversion="1.3"
       weight="33.333333"
       steps="2"
       helper_size="0"
       apply_no_weight="true"
       apply_with_weight="true"
       only_selected="false"
       uniform="false" /><inkscape:path-effect
       effect="bspline"
       id="path-effect11"
       is_visible="true"
       lpeversion="1.3"
       weight="33.333333"
       steps="2"
       helper_size="0"
       apply_no_weight="true"
       apply_with_weight="true"
       only_selected="false"
       uniform="false" /><inkscape:path-effect
       effect="bspline"
       id="path-effect10"
       is_visible="true"
       lpeversion="1.3"
       weight="33.333333"
       steps="2"
       helper_size="0"
       apply_no_weight="true"
       apply_with_weight="true"
       only_selected="false"
       uniform="false" /><inkscape:path-effect
       effect="bspline"
       id="path-effect9"
       is_visible="true"
       lpeversion="1.3"
       weight="33.333333"
       steps="2"
       helper_size="0"
       apply_no_weight="true"
       apply_with_weight="true"
       only_selected="false"
       uniform="false" /><inkscape:path-effect
       effect="bspline"
       id="path-effect8"
       is_visible="true"
       lpeversion="1.3"
       weight="33.333333"
       steps="2"
       helper_size="0"
       apply_no_weight="true"
       apply_with_weight="true"
       only_selected="false"
       uniform="false" /><inkscape:path-effect
       effect="spiro"
       id="path-effect7"
       is_visible="true"
       lpeversion="1" /><inkscape:path-effect
       effect="bspline"
       id="path-effect6"
       is_visible="true"
       lpeversion="1.3"
       weight="33.333333"
       steps="2"
       helper_size="0"
       apply_no_weight="true"
       apply_with_weight="true"
       only_selected="false"
       uniform="false" /><inkscape:path-effect
       effect="bspline"
       id="path-effect3"
       is_visible="true"
       lpeversion="1.3"
       weight="33.333333"
       steps="2"
       helper_size="0"
       apply_no_weight="true"
       apply_with_weight="true"
       only_selected="false"
       uniform="false" /></defs><g
     inkscape:label="main circle"
     inkscape:groupmode="layer"
     id="layer1"><path
       style="fill:none;stroke:#828282;stroke-width:3.97506;stroke-linecap:square;stroke-miterlimit:0;stroke-dasharray:none;paint-order:markers stroke fill;stroke-opacity:1"
       id="black_half"
       d="m -2.0213127,51.647793 a 47.978687,46.398666 0 0 1 -23.9893443,40.182424 47.978687,46.398666 0 0 1 -47.978688,-1e-6 47.978687,46.398666 0 0 1 -23.989342,-40.182423"
       sodipodi:type="arc"
       sodipodi:arc-type="arc"
       sodipodi:open="true"
       sodipodi:start="0"
       sodipodi:end="3.1415927"
       sodipodi:ry="46.398666"
       sodipodi:rx="47.978687"
       sodipodi:cy="51.647793"
       sodipodi:cx="-50"
       transform="rotate(-90)" /><path
       style="fill:none;stroke:#000000;stroke-width:0;stroke-linecap:square;stroke-miterlimit:0;stroke-dasharray:none;paint-order:markers stroke fill"
       id="path5"
       sodipodi:type="arc"
       sodipodi:cx="44.867153"
       sodipodi:cy="17.027895"
       sodipodi:rx="8.9193745"
       sodipodi:ry="4.8651128"
       sodipodi:start="1.5719584"
       sodipodi:end="1.4422369"
       sodipodi:open="true"
       sodipodi:arc-type="arc"
       d="m 44.856788,21.893004 a 8.9193745,4.8651128 0 0 1 -8.904649,-4.71301 8.9193745,4.8651128 0 0 1 8.347246,-5.007345 8.9193745,4.8651128 0 0 1 9.445963,4.388287 8.9193745,4.8651128 0 0 1 -7.734681,5.291923" /><g
       id="g1"
       style="stroke:#828282;stroke-opacity:1"><path
         style="fill:none;stroke:#828282;stroke-width:3.95;stroke-linecap:square;stroke-miterlimit:0;stroke-dasharray:none;stroke-opacity:1;paint-order:markers stroke fill"
         id="path1"
         sodipodi:type="arc"
         sodipodi:cx="-51.514946"
         sodipodi:cy="-50.032143"
         sodipodi:rx="35.816135"
         sodipodi:ry="48.0541"
         sodipodi:start="1.5719584"
         sodipodi:end="4.7159584"
         sodipodi:arc-type="arc"
         d="m -51.556567,-1.978075 a 35.816135,48.0541 0 0 1 -31.011183,-24.10882 35.816135,48.0541 0 0 1 0.08479,-48.087356 35.816135,48.0541 0 0 1 31.095856,-23.911686"
         transform="scale(-1)"
         sodipodi:open="true" /><path
         style="fill:none;stroke:#828282;stroke-width:3.95257;stroke-linecap:square;stroke-miterlimit:0;stroke-dasharray:none;stroke-opacity:1;paint-order:markers stroke fill"
         id="path2"
         sodipodi:type="arc"
         sodipodi:cx="-50.98806"
         sodipodi:cy="-50.012131"
         sodipodi:rx="20.355661"
         sodipodi:ry="48.061031"
         sodipodi:start="1.5719584"
         sodipodi:end="4.7159584"
         sodipodi:open="true"
         sodipodi:arc-type="arc"
         d="m -51.011715,-1.9511318 a 20.355661,48.061031 0 0 1 -17.624825,-24.1122972 20.355661,48.061031 0 0 1 0.04819,-48.094292 20.355661,48.061031 0 0 1 17.672949,-23.915135"
         transform="scale(-1)" /><path
         style="fill:none;stroke:#828282;stroke-width:3.34282;stroke-linecap:round;stroke-miterlimit:0;stroke-dasharray:none;stroke-opacity:1;paint-order:markers stroke fill"
         d="m 109.3299,29.596103 c 11.71231,0.135142 23.42462,0.270285 35.13693,0.405427"
         id="path3"
         inkscape:path-effect="#path-effect3"
         inkscape:original-d="m 109.3299,29.596103 c 11.71231,0.135144 23.42462,0.270286 35.13693,0.405427"
         transform="matrix(1.1965937,0,0,1.1965937,-75.288935,14.342923)" /><path
         style="fill:none;stroke:#828282;stroke-width:4;stroke-linecap:round;stroke-miterlimit:0;stroke-dasharray:none;stroke-opacity:1;paint-order:markers stroke fill"
         id="path4"
         sodipodi:type="arc"
         sodipodi:cx="49.542549"
         sodipodi:cy="21.395586"
         sodipodi:rx="47.241364"
         sodipodi:ry="5.131309"
         sodipodi:start="0.5625837"
         sodipodi:end="1.4422369"
         sodipodi:arc-type="arc"
         d="M 89.503067,24.13249 A 47.241364,5.131309 0 0 1 55.599156,26.484549"
         sodipodi:open="true" /><path
         style="fill:none;stroke:#828282;stroke-width:4;stroke-linecap:round;stroke-miterlimit:0;stroke-dasharray:none;stroke-opacity:1;paint-order:markers stroke fill"
         id="path4-0"
         sodipodi:type="arc"
         sodipodi:cx="-107.13038"
         sodipodi:cy="-63.773396"
         sodipodi:rx="47.241364"
         sodipodi:ry="5.131309"
         sodipodi:start="0.5625837"
         sodipodi:end="1.4422369"
         sodipodi:arc-type="arc"
         d="m -67.169861,-61.036491 a 47.241364,5.131309 0 0 1 -33.903909,2.352059"
         sodipodi:open="true"
         transform="rotate(-169.89079)" /></g><path
       style="fill:none;stroke:#ff0f0f;stroke-width:0;stroke-linecap:square;stroke-miterlimit:0;stroke-dasharray:none;paint-order:markers stroke fill;stroke-opacity:1"
       d="m -100.27538,-9.189658 c 3.603785,5.6759638 7.207571,11.351929 8.784223,16.577469 1.576653,5.22554 1.126188,10.000463 -1.306412,13.649324 -2.432601,3.64886 -6.847154,6.171462 -11.532131,7.387738 -4.68497,1.216277 -9.64008,1.126184 -14.59528,1.036089"
       id="path8"
       inkscape:path-effect="#path-effect8"
       inkscape:original-d="m -100.27538,-9.189658 c 3.603783,5.6759652 7.207569,11.3519304 10.811358,17.0278955 -0.450482,4.7751135 -0.900948,9.5500365 -1.35142,14.3250555 -4.414729,2.522701 -8.829281,5.045303 -13.243918,7.567954 -4.95531,-0.0901 -9.91042,-0.180192 -14.86562,-0.270285" /></g><g
     inkscape:groupmode="layer"
     id="layer2"
     inkscape:label="other stuff"><path
       style="fill:none;stroke:#a62424;stroke-width:4;stroke-linecap:square;stroke-miterlimit:0;stroke-dasharray:none;paint-order:markers stroke fill"
       id="red_half-4"
       d="m 98.011814,-48.387424 a 48.011814,46.39735 0 0 1 -0.741404,8.122291"
       sodipodi:type="arc"
       sodipodi:arc-type="arc"
       sodipodi:open="true"
       sodipodi:start="0"
       sodipodi:end="0.17596608"
       sodipodi:ry="46.39735"
       sodipodi:rx="48.011814"
       sodipodi:cy="-48.387424"
       sodipodi:cx="50"
       transform="rotate(90)" /><path
       style="fill:none;stroke:#a62424;stroke-width:4;stroke-linecap:round;stroke-miterlimit:0;stroke-dasharray:none;stroke-opacity:1;paint-order:markers stroke fill"
       d="m -65.028474,-1.6722973 c -3.201255,0.2150097 -6.402445,0.430015 -8.719818,0.80429861 -2.317373,0.37428363 -3.750743,0.90781602 -4.94525,1.36571067 -1.194508,0.45789464 -2.150088,0.84012632 -2.914572,1.38163872 -0.764484,0.5415125 -1.337832,1.2422704 -1.879342,2.0386115 -0.541511,0.7963412 -1.051153,1.6882158 -1.465249,2.3252853 -0.414095,0.6370695 -0.732622,1.019301 -0.955596,1.4971057 -0.222974,0.4778048 -0.350385,1.0511525 -0.509654,1.6882251 -0.159268,0.6370727 -0.350383,1.3378307 -0.445943,1.9749017 -0.09556,0.637072 -0.09556,1.210419 -0.09556,1.783779"
       id="path47"
       inkscape:path-effect="#path-effect47"
       inkscape:original-d="m -65.028474,-1.6722973 c -3.201255,0.2150096 -6.402445,0.430015 -9.603765,0.645029 -1.433426,0.53355321 -2.866796,1.06708549 -4.300191,1.60062736 -0.95562,0.38224703 -1.9112,0.76447874 -2.866798,1.14671814 -0.57337,0.7007862 -1.146717,1.4015444 -1.720077,2.1023166 -0.509662,0.8919096 -1.019305,1.7837838 -1.528956,2.6756757 -0.31854,0.382247 -0.637066,0.7644786 -0.955598,1.1467182 -0.127416,0.5733703 -0.254828,1.1467179 -0.382241,1.7200771 -0.191122,0.7007862 -0.382238,1.4015442 -0.573357,2.1023162 0,0.573371 0,1.146718 0,1.720078"
       transform="translate(113.33852,3.7392512)"
       sodipodi:nodetypes="cccccccccc" /><path
       style="fill:none;stroke:#a62424;stroke-width:4;stroke-linecap:round;stroke-miterlimit:0;stroke-dasharray:none;stroke-opacity:1;paint-order:markers stroke fill"
       d="m -76.638996,18.72973 c -1.083011,-0.573359 -2.166022,-1.146719 -3.249045,-1.624522 -1.083023,-0.477804 -2.166012,-0.860035 -3.153473,-1.114862 -0.987461,-0.254828 -1.879334,-0.382238 -2.834943,-0.57336 -0.955609,-0.191122 -1.974892,-0.445943 -3.185332,-0.637064 -1.21044,-0.191122 -2.611956,-0.318532 -3.66312,-0.286677 -1.051165,0.03186 -1.751924,0.222971 -2.516411,0.477801 -0.764488,0.254829 -1.592655,0.573355 -2.484557,1.146723 -0.891902,0.573367 -1.847481,1.401534 -2.588073,2.189908 -0.74059,0.788374 -1.26615,1.536901 -1.65636,2.452702 -0.39021,0.915801 -0.64503,1.99877 -0.83615,2.994204 -0.19113,0.995433 -0.31853,1.903216 -0.27872,2.866798 0.0398,0.963582 0.24686,1.982865 0.79634,2.938472 0.54948,0.955607 1.44134,1.847466 1.25021,2.229712 -0.19112,0.382247 -1.46523,0.254836 -2.64381,0.796355 -1.17859,0.541519 -2.26158,1.751919 -2.9305,2.611961 -0.66892,0.860043 -0.92374,1.369685 -1.40155,2.166028 -0.4778,0.796342 -1.17856,1.879334 -1.6484,2.906611 -0.46983,1.027278 -0.70873,1.998768 -0.9317,2.858821 -0.22298,0.860054 -0.43002,1.608579 -0.53354,2.428816 -0.10353,0.820237 -0.10353,1.712112 -0.16724,2.699575 -0.0637,0.987462 -0.19112,2.070452 1e-5,3.185329 0.19112,1.114876 0.70077,2.261572 1.36969,3.153469 0.66893,0.891897 1.4971,1.528951 2.3253,2.293439 0.82819,0.764489 1.65635,1.65636 2.4527,2.325286 0.79634,0.668925 1.5608,1.114861 2.00675,1.369686 0.44594,0.254826 0.57335,0.31853 0.70077,0.382239"
       id="path48"
       inkscape:path-effect="#path-effect48"
       inkscape:original-d="m -76.638996,18.72973 c -1.083011,-0.57336 -2.166022,-1.146719 -3.249033,-1.720078 -1.083035,-0.382247 -2.166024,-0.764478 -3.249035,-1.146718 -0.891911,-0.127415 -1.783784,-0.254826 -2.675676,-0.382239 -1.019326,-0.254832 -2.038609,-0.509653 -3.057917,-0.764479 -1.401572,-0.127416 -2.803088,-0.254826 -4.204631,-0.382239 -0.700786,0.191123 -1.401545,0.382239 -2.102318,0.573359 -0.828202,0.318539 -1.656369,0.637065 -2.484554,0.955598 -0.955619,0.828202 -1.911197,1.656371 -2.8668,2.484556 -0.52558,0.748563 -1.05114,1.497089 -1.57673,2.245656 -0.25483,1.083034 -0.50965,2.166003 -0.76448,3.249035 -0.12741,0.907836 -0.25482,1.815619 -0.38224,2.723456 0.20705,1.019326 0.41409,2.03861 0.62114,3.057914 0.89191,0.891908 1.78377,1.783765 2.675676,2.675676 -1.274156,-0.127415 -2.548266,-0.254825 -3.822396,-0.382238 -1.08304,1.210447 -2.16603,2.420847 -3.24904,3.631274 -0.25483,0.509661 -0.50965,1.019304 -0.76448,1.528958 -0.70078,1.083032 -1.40154,2.166022 -2.10231,3.249033 -0.2389,0.971545 -0.4778,1.943033 -0.7167,2.914576 -0.20705,0.748565 -0.41409,1.49709 -0.62114,2.245655 0,0.891909 0,1.783784 0,2.675677 -0.12742,1.083032 -0.25483,2.166022 -0.38224,3.249035 0.50966,1.146742 1.01931,2.293435 1.52896,3.440153 0.8282,0.637079 1.65637,1.274132 2.48456,1.911199 0.8282,0.891908 1.65636,1.783784 2.48455,2.675675 0.7645,0.445953 1.52896,0.891892 2.29344,1.337837 0.12741,0.06371 0.25482,0.127413 0.38224,0.191119"
       transform="translate(113.33852,3.7392512)"
       sodipodi:nodetypes="ccccccccccccccccccccccccccc" /><path
       style="fill:none;stroke:#a62424;stroke-width:4;stroke-linecap:round;stroke-miterlimit:0;stroke-dasharray:none;stroke-opacity:1;paint-order:markers stroke fill"
       d="m -87.532817,50.455597 c -0.955599,0.19112 -1.911197,0.38224 -2.715265,0.646399 -0.804068,0.26416 -1.456565,0.601337 -2.280902,1.090077 -0.824338,0.48874 -1.820417,1.128982 -2.736451,1.820438 -0.916034,0.691456 -1.751931,1.434059 -2.615844,2.315031 -0.863913,0.880971 -1.755788,1.900255 -2.361001,2.792154 -0.60522,0.891898 -0.92375,1.656363 -1.14672,2.675682 -0.22297,1.019319 -0.35038,2.293425 -0.44594,3.535715 -0.0956,1.24229 -0.15926,2.45269 -0.12741,3.790542 0.0319,1.337852 0.15927,2.803075 0.4778,4.077218 0.31854,1.274142 0.82818,2.357132 1.720085,3.408301 0.891904,1.051169 2.16601,2.070452 3.408301,2.739374 1.242291,0.668922 2.452691,0.987448 3.854251,1.146714 1.40156,0.159266 2.994193,0.159266 4.332041,0.127412 1.337848,-0.03185 2.420838,-0.09556 3.312737,-0.414097 0.891899,-0.318538 1.592658,-0.891886 2.102313,-1.305981 0.509655,-0.414095 0.828181,-0.668916 1.274133,-1.242284 0.445953,-0.573368 1.019301,-1.465243 1.528958,-2.261582 0.509656,-0.796338 0.955593,-1.497097 1.401539,-2.197869"
       id="path49"
       inkscape:path-effect="#path-effect49"
       inkscape:original-d="m -87.532817,50.455597 c -0.955599,0.191121 -1.911197,0.38224 -2.866795,0.57336 -0.652538,0.337199 -1.305035,0.674376 -1.957572,1.011575 -0.996138,0.640281 -1.992217,1.280523 -2.988354,1.920803 -0.835931,0.742632 -1.671828,1.485235 -2.507744,2.227854 -0.891908,1.019326 -1.783784,2.038609 -2.675678,3.057914 -0.31853,0.764495 -0.63706,1.528958 -0.9556,2.293437 -0.12741,1.274157 -0.25482,2.548263 -0.38223,3.822393 -0.0637,1.21045 -0.12742,2.42085 -0.19112,3.631274 0.12741,1.465281 0.25482,2.930504 0.38224,4.395753 0.50966,1.083035 1.0193,2.166025 1.52895,3.249036 1.27416,1.019326 2.548266,2.038609 3.822396,3.057914 1.210451,0.318539 2.420851,0.637066 3.631274,0.955598 1.592697,0 3.18533,0 4.777994,0 1.083032,-0.06371 2.166022,-0.127413 3.249033,-0.191119 0.700786,-0.573371 1.401546,-1.146718 2.102319,-1.720078 0.318537,-0.25483 0.637063,-0.509651 0.955598,-0.764479 0.57337,-0.891908 1.146717,-1.783784 1.720077,-2.675675 0.445953,-0.700786 0.891892,-1.401543 1.337837,-2.102316"
       transform="translate(113.33852,3.7392512)"
       sodipodi:nodetypes="ccccccccccccccccccc" /><path
       style="fill:none;stroke:#a62424;stroke-width:4;stroke-linecap:round;stroke-miterlimit:0;stroke-dasharray:none;stroke-opacity:1;paint-order:markers stroke fill"
       d="m -65.231757,94.351848 c -4.694635,-0.394936 -9.38927,-0.789871 -12.469049,-1.76711 -3.079779,-0.977239 -4.544699,-2.536781 -5.468282,-3.63509 -0.923582,-1.098309 -1.305814,-1.735363 -1.719912,-2.659121 -0.414098,-0.923758 -0.860035,-2.134158 -1.242277,-2.930492 -0.382242,-0.796335 -0.700769,-1.178568 -1.019302,-1.560807"
       id="path50"
       inkscape:path-effect="#path-effect50"
       inkscape:original-d="m -65.231757,94.351848 c -4.694635,-0.394936 -9.38927,-0.789871 -14.083908,-1.184807 -1.46492,-1.559542 -2.92984,-3.119084 -4.394759,-4.678625 -0.382247,-0.637077 -0.76448,-1.27413 -1.146718,-1.911197 -0.445955,-1.21045 -0.891892,-2.42085 -1.337839,-3.631274 -0.318537,-0.382246 -0.637064,-0.764479 -0.955598,-1.146717"
       transform="translate(113.33852,3.7392512)"
       sodipodi:nodetypes="cccccc" /><path
       style="fill:none;stroke:#a62424;stroke-width:4;stroke-linecap:round;stroke-miterlimit:0;stroke-dasharray:none;stroke-opacity:1;paint-order:markers stroke fill"
       d="m -64.025095,76.638995 c 1.210429,-0.445948 2.420845,-0.891891 1.879317,-0.700763 -0.541528,0.191127 -2.834917,1.019296 -4.427589,1.879344 -1.592673,0.860047 -2.484546,1.751921 -3.15347,2.54826 -0.668923,0.796339 -1.114861,1.497097 -1.433396,2.006752 -0.318534,0.509656 -0.50965,0.828183 -0.700769,1.146717"
       id="path51"
       inkscape:path-effect="#path-effect51"
       inkscape:original-d="m -64.025095,76.638995 c 1.210429,-0.445948 2.420845,-0.891891 3.631272,-1.337838 -2.293482,0.828204 -4.586872,1.656371 -6.880307,2.484556 -0.89191,0.89191 -1.783783,1.783784 -2.675675,2.675676 -0.445955,0.700786 -0.891892,1.401545 -1.337839,2.102315 -0.191122,0.31854 -0.382239,0.637067 -0.573358,0.955601"
       sodipodi:nodetypes="cccccc"
       transform="translate(113.33852,3.7392512)" /><path
       style="fill:none;stroke:#a62424;stroke-width:4;stroke-linecap:round;stroke-miterlimit:0;stroke-dasharray:none;stroke-opacity:1;paint-order:markers stroke fill"
       d="m -89.444014,27.138995 c 0,0 0,0 0,0 0.700772,1.720077 1.401544,3.440155 2.229738,4.650586 0.828194,1.210432 1.783774,1.911191 2.48455,2.548262 0.700777,0.637071 1.146715,1.210419 1.815644,1.656368 0.668928,0.445949 1.560801,0.764476 2.898656,1.114866 1.337855,0.35039 3.121605,0.732622 4.499268,0.915778 1.377664,0.183156 2.34917,0.16723 3.315658,-0.005 0.966489,-0.172226 1.927942,-0.500752 2.429632,-0.652053 0.501691,-0.151302 0.543613,-0.125385 1.010532,-0.430964 0.466919,-0.305579 1.358792,-0.94263 2.091424,-1.515995 0.732633,-0.573365 1.30598,-1.083008 1.815635,-1.624519 0.509656,-0.541511 0.955593,-1.114858 1.401544,-1.65637 0.445951,-0.541511 0.891887,-1.051153 1.242276,-1.528958 0.350389,-0.477804 0.60521,-0.92374 0.860036,-1.369685"
       id="path52"
       inkscape:path-effect="#path-effect52"
       inkscape:original-d="m -89.444014,27.138995 v 0 c 0,0 1.401543,3.440155 2.102316,5.160232 0.955616,0.700786 1.911196,1.401545 2.866794,2.102318 0.445956,0.573368 0.891892,1.146718 1.33784,1.720075 0.89191,0.31854 1.783783,0.637066 2.675675,0.955601 1.783818,0.382246 3.567568,0.764476 5.351352,1.146717 0.971543,-0.01593 1.943049,-0.03185 2.914574,-0.04778 0.961452,-0.328525 1.922905,-0.65705 2.884357,-0.985576 0.04193,0.02592 0.08385,0.05184 0.125778,0.07776 0.891911,-0.637079 1.783784,-1.27413 2.675678,-1.911196 0.57337,-0.509665 1.146717,-1.019308 1.720074,-1.528959 0.445955,-0.57337 0.891892,-1.146717 1.337839,-1.720077 0.445956,-0.509662 0.891892,-1.019305 1.337837,-1.528958 0.254833,-0.445956 0.509654,-0.891892 0.764479,-1.337837"
       sodipodi:nodetypes="ccccccccccccccc"
       transform="translate(113.33852,3.7392512)" /><path
       style="fill:none;stroke:#a62424;stroke-width:4;stroke-linecap:round;stroke-miterlimit:0;stroke-dasharray:none;stroke-opacity:1;paint-order:markers stroke fill"
       d="m -98.044401,45.868724 c 0.382239,-0.509652 0.764479,-1.019304 1.560823,-1.911209 0.796344,-0.891904 2.006745,-2.166009 2.866788,-2.962345 0.860044,-0.796335 1.369687,-1.114862 2.070468,-1.592668 0.70078,-0.477805 1.592653,-1.114858 2.452701,-1.528952 0.860047,-0.414095 1.688216,-0.60521 2.35714,-0.732624 0.668923,-0.127413 1.178566,-0.19112 1.974909,-0.222973 0.796343,-0.03185 1.879333,-0.03185 3.121626,0.254832 1.242293,0.286686 2.643809,0.860033 3.599412,1.560814 0.955603,0.70078 1.465245,1.528949 2.03861,2.357142 0.573365,0.828193 1.210419,1.656362 1.592659,2.580118 0.382241,0.923756 0.509651,1.94304 0.541504,2.99421 0.03185,1.051169 -0.03185,2.134159 -0.159267,3.12162 -0.127415,0.987461 -0.31853,1.879334 -0.637067,2.898651 -0.318538,1.019316 -0.764475,2.16601 -1.146718,3.057908 -0.382243,0.891899 -0.700769,1.528952 -1.242283,2.293441 -0.541514,0.764488 -1.305977,1.656361 -2.070463,2.357138 -0.764485,0.700777 -1.528949,1.21042 -2.229728,1.624516 -0.700779,0.414096 -1.337832,0.732623 -2.261589,1.242282 -0.923758,0.50966 -2.134157,1.210417 -2.834931,1.624511 -0.700775,0.414094 -0.891891,0.541504 -1.210428,0.700772 -0.318538,0.159268 -0.764475,0.350384 -1.210422,0.541504"
       id="path53"
       inkscape:path-effect="#path-effect53"
       inkscape:original-d="m -98.044401,45.868724 c 0.382241,-0.509651 0.764479,-1.019304 1.146717,-1.528955 1.210451,-1.274157 2.420851,-2.548263 3.631277,-3.822396 0.509662,-0.318537 1.019305,-0.637064 1.528956,-0.955598 0.89191,-0.637077 1.783783,-1.27413 2.675675,-1.911197 0.828202,-0.191121 1.656371,-0.382238 2.484557,-0.573357 0.509661,-0.06371 1.019304,-0.127415 1.528958,-0.191122 1.083032,0 2.166022,0 3.249033,0 1.401575,0.573371 2.803091,1.14672 4.204634,1.720078 0.509664,0.828201 1.019305,1.656371 1.528958,2.484556 0.637077,0.828201 1.27413,1.656371 1.911197,2.484557 0.127415,1.019325 0.254825,2.038609 0.382238,3.057913 -0.06371,1.083035 -0.127413,2.166025 -0.191119,3.249036 -0.191122,0.891911 -0.382238,1.783784 -0.573357,2.675676 -0.445956,1.146741 -0.891892,2.293435 -1.33784,3.440155 -0.318539,0.637077 -0.637066,1.27413 -0.955598,1.911196 -0.764495,0.891911 -1.528958,1.783784 -2.293437,2.675676 -0.764493,0.509661 -1.528956,1.019304 -2.293435,1.528958 -0.63708,0.318537 -1.274133,0.637064 -1.911197,0.955598 -1.21045,0.700786 -2.42085,1.401543 -3.631273,2.102316 -0.191125,0.127415 -0.382241,0.254825 -0.57336,0.382238 -0.445956,0.191125 -0.891892,0.382241 -1.33784,0.57336"
       transform="translate(113.33852,3.7392512)" /><path
       style="fill:none;stroke:#a62424;stroke-width:4;stroke-linecap:round;stroke-miterlimit:0;stroke-dasharray:none;stroke-opacity:1;paint-order:markers stroke fill"
       d="m -67.27413,65.554052 c -0.764479,-0.891892 -1.528958,-1.783784 -2.197883,-2.580122 -0.668925,-0.796339 -1.242271,-1.497096 -1.815637,-2.006752 -0.573365,-0.509656 -1.146712,-0.828182 -1.943055,-1.146718 -0.796343,-0.318537 -1.815626,-0.637063 -2.834931,-0.955596"
       id="path54"
       inkscape:path-effect="#path-effect54"
       inkscape:original-d="m -67.27413,65.554052 c -0.764479,-0.891892 -1.528958,-1.783784 -2.293437,-2.675675 -0.573371,-0.700786 -1.146717,-1.401543 -1.720077,-2.102316 -0.573371,-0.31854 -1.146718,-0.637066 -1.720078,-0.955598 -1.019326,-0.31854 -2.038609,-0.637067 -3.057914,-0.955599"
       transform="translate(113.33852,3.7392512)" /><path
       style="fill:none;stroke:#a62424;stroke-width:4;stroke-linecap:round;stroke-miterlimit:0;stroke-dasharray:none;stroke-opacity:1;paint-order:markers stroke fill"
       d="m 38.415057,10.320463 c 1.656371,0.509653 3.312742,1.019305 4.49132,1.688233 1.178579,0.668927 1.879336,1.497095 2.516408,2.388996 0.637072,0.891902 1.210419,1.847481 1.465245,2.48455 0.254826,0.637069 0.191121,0.955596 0.191121,1.401548 10e-7,0.445951 0.06371,1.019299 0.06371,1.528956 -10e-7,0.509656 -0.06371,0.955594 -0.191121,1.433398 -0.127416,0.477804 -0.318532,0.987446 -0.509652,1.497099"
       id="path55"
       inkscape:path-effect="#path-effect55"
       inkscape:original-d="m 38.415057,10.320463 c 1.656371,0.509653 3.312742,1.019305 4.969113,1.528958 0.700786,0.828202 1.401543,1.65637 2.102316,2.484556 0.573371,0.955617 1.146717,1.911197 1.720078,2.866795 -0.06371,0.318539 -0.127413,0.637066 -0.19112,0.955598 0.06371,0.573371 0.127413,1.146719 0.19112,1.720078 -0.06371,0.445954 -0.127413,0.891892 -0.19112,1.337838 -0.191124,0.509662 -0.382241,1.019304 -0.57336,1.528957" /><path
       style="fill:none;stroke:#a62424;stroke-width:4;stroke-linecap:square;stroke-miterlimit:0;stroke-dasharray:none;paint-order:markers stroke fill"
       id="red_half"
       d="M 2.6413069,-41.206922 A 49.044548,46.169796 0 0 1 2.048027,-48.366543"
       sodipodi:type="arc"
       sodipodi:arc-type="arc"
       sodipodi:open="true"
       sodipodi:start="2.9858928"
       sodipodi:end="3.1415927"
       sodipodi:ry="46.169796"
       sodipodi:rx="49.044548"
       sodipodi:cy="-48.366543"
       sodipodi:cx="51.092575"
       transform="rotate(89.941765)" /></g></svg>
